<?xml version="1.0" encoding="UTF-8" standalone="no"?>
<svg
   xmlns:dc="http://purl.org/dc/elements/1.1/"
   xmlns:cc="http://creativecommons.org/ns#"
   xmlns:rdf="http://www.w3.org/1999/02/22-rdf-syntax-ns#"
   xmlns:svg="http://www.w3.org/2000/svg"
   xmlns="http://www.w3.org/2000/svg"
   xmlns:sodipodi="http://sodipodi.sourceforge.net/DTD/sodipodi-0.dtd"
   xmlns:inkscape="http://www.inkscape.org/namespaces/inkscape"
   version="1.1"
   id="svg2"
   xml:space="preserve"
   width="666.66669"
   height="666.66669"
   viewBox="0 0 666.66669 666.66669"
   sodipodi:docname="413005-PE9R83-322.ai.svg"
   inkscape:version="1.0.1 (1.0.1+r73)"><metadata
     id="metadata8"><rdf:RDF><cc:Work
         rdf:about=""><dc:format>image/svg+xml</dc:format><dc:type
           rdf:resource="http://purl.org/dc/dcmitype/StillImage" /><dc:title></dc:title></cc:Work></rdf:RDF></metadata><defs
     id="defs6"><clipPath
       clipPathUnits="userSpaceOnUse"
       id="clipPath20"><path
         d="M 0,500 H 500 V 0 H 0 Z"
         id="path18" /></clipPath><clipPath
       clipPathUnits="userSpaceOnUse"
       id="clipPath32"><path
         d="m 138.349,414.259 h 4.156 v -24.904 h -4.156 z"
         id="path30" /></clipPath><clipPath
       clipPathUnits="userSpaceOnUse"
       id="clipPath60"><path
         d="M 86.2728,387.772 H 117.384 V 384.41 H 86.2728 Z"
         id="path58" /></clipPath><clipPath
       clipPathUnits="userSpaceOnUse"
       id="clipPath106"><path
         d="m 224.38,388.579 h 53.651 v -4.703 H 224.38 Z"
         id="path104" /></clipPath><clipPath
       clipPathUnits="userSpaceOnUse"
       id="clipPath144"><path
         d="m 82.1389,262.079 h 60.8371 v -2.376 H 82.1389 Z"
         id="path142" /></clipPath><clipPath
       clipPathUnits="userSpaceOnUse"
       id="clipPath194"><path
         d="m 397.34,132.187 h 31.379 v -14.8 H 397.34 Z"
         id="path192" /></clipPath><clipPath
       clipPathUnits="userSpaceOnUse"
       id="clipPath210"><path
         d="m 371.857,139.812 h 7.656 v -6.917 h -7.656 z"
         id="path208" /></clipPath><clipPath
       clipPathUnits="userSpaceOnUse"
       id="clipPath262"><path
         d="m 97.39,131.31 h 12.066 V 119.071 H 97.39 Z"
         id="path260" /></clipPath><clipPath
       clipPathUnits="userSpaceOnUse"
       id="clipPath310"><path
         d="m 378.407,393.621 h 7.564 v -11.325 h -7.564 z"
         id="path308" /></clipPath><clipPath
       clipPathUnits="userSpaceOnUse"
       id="clipPath334"><path
         d="m 268.312,285.842 h 6.208 v -23.267 h -6.208 z"
         id="path332" /></clipPath><clipPath
       clipPathUnits="userSpaceOnUse"
       id="clipPath354"><path
         d="m 220.201,261.004 h 30.871 v -3.336 h -30.871 z"
         id="path352" /></clipPath><clipPath
       clipPathUnits="userSpaceOnUse"
       id="clipPath408"><path
         d="m 374.53,256.185 h 8.774 v -8.835 h -8.774 z"
         id="path406" /></clipPath><clipPath
       clipPathUnits="userSpaceOnUse"
       id="clipPath436"><path
         d="m 237.738,123.684 h 9.747 v -2.52 h -9.747 z"
         id="path434" /></clipPath><clipPath
       clipPathUnits="userSpaceOnUse"
       id="clipPath480"><path
         d="M 0,500 H 500 V 0 H 0 Z"
         id="path478" /></clipPath></defs><sodipodi:namedview
     pagecolor="#ffffff"
     bordercolor="#666666"
     borderopacity="1"
     objecttolerance="10"
     gridtolerance="10"
     guidetolerance="10"
     inkscape:pageopacity="0"
     inkscape:pageshadow="2"
     inkscape:window-width="1528"
     inkscape:window-height="836"
     id="namedview4"
     showgrid="false"
     inkscape:zoom="1.035"
     inkscape:cx="130.91788"
     inkscape:cy="410.62803"
     inkscape:window-x="72"
     inkscape:window-y="27"
     inkscape:window-maximized="1"
     inkscape:current-layer="g10" /><g
     id="g10"
     inkscape:groupmode="layer"
     inkscape:label="413005-PE9R83-322"
     transform="matrix(1.3333333,0,0,-1.3333333,0,666.66667)"><path
       d="M 1.6679748,8.6692704 H 501.10698 V 508.66927 H 1.6679748 Z"
       style="fill:none;fill-opacity:1;fill-rule:nonzero;stroke:none"
       id="path12" /><g
       id="g76"
       transform="translate(93.4132,331.2053)" /><g
       id="g80"
       transform="translate(125.9098,359.6672)" /><g
       id="g164"
       transform="matrix(2.570573,0,0,2.3881615,190.84642,258.00079)"><path
         d="M 0,0 14.57,26.008 21.552,20.633 7.519,-4.326 Z"
         style="fill:#d6dce6;fill-opacity:1;fill-rule:nonzero;stroke:none"
         id="path166" /></g><g
       id="g168"
       transform="matrix(2.570573,0,0,2.3881615,200.50869,202.546)"><path
         d="M 0,0 -4.277,21.058 H 4.278 L 8.556,-1.27 Z"
         style="fill:#d6dce6;fill-opacity:1;fill-rule:nonzero;stroke:none"
         id="path170" /></g><g
       id="g172"
       transform="matrix(2.570573,0,0,2.3881615,219.36126,252.83495)"><path
         d="m 0,0 c 0,-4.05 -3.283,-7.333 -7.334,-7.333 -4.05,0 -7.333,3.283 -7.333,7.333 0,4.051 3.283,7.334 7.333,7.334 C -3.283,7.334 0,4.051 0,0"
         style="fill:#c4cbd5;fill-opacity:1;fill-rule:nonzero;stroke:none"
         id="path174" /></g><g
       id="g176"
       transform="matrix(2.570573,0,0,2.3881615,164.2194,202.546)"><path
         d="M 0,0 15.304,5.815 C 20.317,7.72 25.915,5.12 27.693,0.061 29.405,-4.811 26.932,-10.159 22.112,-12.01 L 0,-20.5 Z"
         style="fill:#c4cbd5;fill-opacity:1;fill-rule:nonzero;stroke:none"
         id="path178" /></g><g
       id="g180"
       transform="matrix(2.570573,0,0,2.3881615,264.63986,288.95351)"><path
         d="m 0,0 27.353,11.202 -38.947,30.05 c -1.92,1.48 -4.684,1.079 -6.102,-0.888 l -9.872,-13.683 c -1.352,-1.873 -0.978,-4.481 0.846,-5.899 z"
         style="fill:#d6dce6;fill-opacity:1;fill-rule:nonzero;stroke:none"
         id="path182" /></g><g
       id="g184"
       transform="matrix(2.570573,0,0,2.3881615,264.63986,288.95351)"><path
         d="m 0,0 13.957,-10.559 c 0.335,-0.254 0.777,-0.315 1.169,-0.162 l 25.364,9.924 c 0.886,0.347 1.042,1.532 0.278,2.097 l -13.415,9.902"
         style="fill:#575a6c;fill-opacity:1;fill-rule:nonzero;stroke:none"
         id="path186" /></g><g
       id="g188"
       transform="matrix(2.570573,0,0,2.3881615,-731.43608,-17.196858)"><g
         id="g190" /><g
         id="g202"><g
           clip-path="url(#clipPath194)"
           opacity="0.429993"
           id="g200"><g
             transform="translate(397.3405,120.7438)"
             id="g198"><path
               d="m 0,0 4.101,-3.102 c 0.347,-0.263 0.807,-0.327 1.213,-0.169 l 25.283,9.923 c 0.902,0.354 1.06,1.564 0.28,2.138 l -3.606,2.653 z"
               style="fill:#dadada;fill-opacity:1;fill-rule:nonzero;stroke:none"
               id="path196" /></g></g></g></g><g
       id="g204"
       transform="matrix(2.570573,0,0,2.3881615,-731.43608,-17.196858)"><g
         id="g206" /><g
         id="g218"><g
           clip-path="url(#clipPath210)"
           opacity="0.429993"
           id="g216"><g
             transform="translate(371.8571,138.5671)"
             id="g214"><path
               d="M 0,0 6.809,-5.672 7.655,-4.166 0.697,1.245 Z"
               style="fill:#dadada;fill-opacity:1;fill-rule:nonzero;stroke:none"
               id="path212" /></g></g></g></g><g
       id="g220"
       transform="matrix(2.570573,0,0,2.3881615,331.35932,295.11521)"><path
         d="m 0,0 c 1.104,-2.469 -0.386,-5.536 -3.327,-6.852 -2.942,-1.315 -6.221,-0.379 -7.324,2.09 -1.105,2.469 0.385,5.536 3.327,6.852 C -4.383,3.405 -1.104,2.47 0,0"
         style="fill:#34b9cb;fill-opacity:1;fill-rule:nonzero;stroke:none"
         id="path222" /></g><g
       id="g224"
       transform="matrix(2.570573,0,0,2.3881615,323.24095,292.13)"><path
         d="M 0,0 C 0.171,0.447 0.741,0.645 1.274,0.44 1.807,0.237 2.101,-0.29 1.93,-0.737 1.759,-1.185 1.187,-1.383 0.655,-1.179 0.122,-0.976 -0.171,-0.447 0,0"
         style="fill:#ffffff;fill-opacity:1;fill-rule:nonzero;stroke:none"
         id="path226" /></g><path
       d="m 166.02033,144.6369 h -8.00219 v 67.04764 h 8.00219 z"
       style="fill:#575a6c;fill-opacity:1;fill-rule:nonzero;stroke:none;stroke-width:2.47768"
       id="path228" /></g></svg>
