<?xml version="1.0" encoding="UTF-8" standalone="no"?>
<svg
   xmlns:dc="http://purl.org/dc/elements/1.1/"
   xmlns:cc="http://creativecommons.org/ns#"
   xmlns:rdf="http://www.w3.org/1999/02/22-rdf-syntax-ns#"
   xmlns:svg="http://www.w3.org/2000/svg"
   xmlns="http://www.w3.org/2000/svg"
   xmlns:sodipodi="http://sodipodi.sourceforge.net/DTD/sodipodi-0.dtd"
   xmlns:inkscape="http://www.inkscape.org/namespaces/inkscape"
   version="1.1"
   id="svg2"
   xml:space="preserve"
   width="1000"
   height="666.66669"
   viewBox="0 0 1000 666.66669"
   sodipodi:docname="2481155.ai.svg"
   inkscape:version="1.0.1 (1.0.1+r73)"><metadata
     id="metadata8"><rdf:RDF><cc:Work
         rdf:about=""><dc:format>image/svg+xml</dc:format><dc:type
           rdf:resource="http://purl.org/dc/dcmitype/StillImage" /><dc:title></dc:title></cc:Work></rdf:RDF></metadata><defs
     id="defs6"><clipPath
       clipPathUnits="userSpaceOnUse"
       id="clipPath20"><path
         d="M 0,500 H 750 V 0 H 0 Z"
         id="path18" /></clipPath><clipPath
       clipPathUnits="userSpaceOnUse"
       id="clipPath484"><path
         d="M 0,500 H 750 V 0 H 0 Z"
         id="path482" /></clipPath></defs><sodipodi:namedview
     pagecolor="#ffffff"
     bordercolor="#666666"
     borderopacity="1"
     objecttolerance="10"
     gridtolerance="10"
     guidetolerance="10"
     inkscape:pageopacity="0"
     inkscape:pageshadow="2"
     inkscape:window-width="1528"
     inkscape:window-height="836"
     id="namedview4"
     showgrid="false"
     inkscape:zoom="1.7041198"
     inkscape:cx="726.659"
     inkscape:cy="75.135535"
     inkscape:window-x="72"
     inkscape:window-y="27"
     inkscape:window-maximized="1"
     inkscape:current-layer="g10" /><g
     id="g10"
     inkscape:groupmode="layer"
     inkscape:label="2481155"
     transform="matrix(1.3333333,0,0,-1.3333333,0,666.66667)"><path
       d="M 0.219,0 H 750 V 500 H 0.219 Z"
       style="fill:none;fill-opacity:1;fill-rule:nonzero;stroke:none"
       id="path12" /><g
       id="g22"
       transform="matrix(1,0,0,0.98755554,582.123,201.39403)"><path
         d="m 0,0 c 0,118.763 -96.276,215.04 -215.04,215.04 -118.764,0 -215.041,-96.277 -215.041,-215.04 0,-49.858 16.975,-95.75 45.451,-132.223 H -45.45 C -16.974,-95.75 0,-49.858 0,0"
         style="fill:#e6f5fa;fill-opacity:1;fill-rule:nonzero;stroke:none"
         id="path24" /></g><g
       id="g26"
       transform="matrix(1,0,0,0.98755554,661.4687,156.47082)"><path
         d="m 0,0 h -55.556 c -2.029,0 -3.673,1.645 -3.673,3.673 0,2.029 1.644,3.674 3.673,3.674 L 0,7.347 C 2.028,7.347 3.673,5.702 3.673,3.673 3.673,1.645 2.028,0 0,0"
         style="fill:#e6f5fa;fill-opacity:1;fill-rule:nonzero;stroke:none"
         id="path28" /></g><g
       id="g30"
       transform="matrix(1,0,0,0.98755554,126.9468,194.57081)"><path
         d="m 0,0 h -61 c -2.029,0 -3.673,1.645 -3.673,3.674 0,2.028 1.644,3.673 3.673,3.673 H 0 C 2.028,7.347 3.673,5.702 3.673,3.674 3.673,1.645 2.028,0 0,0"
         style="fill:#e6f5fa;fill-opacity:1;fill-rule:nonzero;stroke:none"
         id="path32" /></g><g
       id="g34"
       transform="matrix(1,0,0,0.98755554,673.3574,112.06361)"><path
         d="m 0,0 h -5.824 c -1.53,0 -2.771,1.241 -2.771,2.771 v 5.466 c 0,1.531 1.241,2.772 2.771,2.772 H 0 c 1.53,0 2.771,-1.241 2.771,-2.772 V 2.771 C 2.771,1.241 1.53,0 0,0"
         style="fill:#90d3ed;fill-opacity:1;fill-rule:nonzero;stroke:none"
         id="path36" /></g><g
       id="g38"
       transform="matrix(1,0,0,0.98755554,111.4375,139.2841)"><path
         d="m 0,0 h -7.714 c -2.027,0 -3.67,1.644 -3.67,3.67 v 7.241 c 0,2.027 1.643,3.67 3.67,3.67 H 0 c 2.027,0 3.67,-1.643 3.67,-3.67 V 3.67 C 3.67,1.644 2.027,0 0,0"
         style="fill:#90d3ed;fill-opacity:1;fill-rule:nonzero;stroke:none"
         id="path40" /></g><g
       id="g42"
       transform="matrix(1,0,0,0.98755554,478.4834,439.29745)"><path
         d="m 0,0 h 26.41 c 1.353,0 2.449,-1.111 2.449,-2.483 v -12.948 c 0,-1.371 -1.096,-2.483 -2.449,-2.483 H 12.79 l -8.096,-6.937 v 6.57 l -4.743,0.135 c -1.334,0.027 -2.4,1.13 -2.4,2.482 V -2.483 C -2.449,-1.111 -1.353,0 0,0 Z"
         style="fill:none;stroke:#ffffff;stroke-width:1.293;stroke-linecap:round;stroke-linejoin:round;stroke-miterlimit:10;stroke-dasharray:none;stroke-opacity:1"
         id="path44" /></g><g
       id="g46"
       transform="matrix(1,0,0,0.98755554,653.4033,320.85833)"><path
         d="m 0,0 c 0,-4.481 -3.583,-8.115 -8.002,-8.115 -4.42,0 -8.003,3.634 -8.003,8.115 0,4.482 3.583,8.115 8.003,8.115 C -3.583,8.115 0,4.482 0,0 Z"
         style="fill:none;stroke:#ffffff;stroke-width:1.257;stroke-linecap:butt;stroke-linejoin:miter;stroke-miterlimit:10;stroke-dasharray:none;stroke-opacity:1"
         id="path48" /></g><g
       id="g50"
       transform="matrix(1,0,0,0.98755554,79.1382,254.07587)"><path
         d="m 0,0 c 0,-4.481 -3.583,-8.114 -8.002,-8.114 -4.42,0 -8.002,3.633 -8.002,8.114 0,4.482 3.582,8.115 8.002,8.115 C -3.583,8.115 0,4.482 0,0 Z"
         style="fill:none;stroke:#ffffff;stroke-width:1.257;stroke-linecap:butt;stroke-linejoin:miter;stroke-miterlimit:10;stroke-dasharray:none;stroke-opacity:1"
         id="path52" /></g><g
       id="g54"
       transform="matrix(1,0,0,0.98755554,296.8027,427.10538)"><path
         d="m 0,0 c 0.305,-0.355 0.887,-0.139 0.885,0.329 l -0.03,9.75 v 15.775 c 0,1.928 -1.563,3.491 -3.491,3.491 h -42.475 c -1.928,0 -3.491,-1.563 -3.491,-3.491 V 8.735 c 0,-1.927 1.563,-3.49 3.491,-3.49 H -4.49 Z"
         style="fill:#0083c8;fill-opacity:1;fill-rule:nonzero;stroke:none"
         id="path56" /></g><g
       id="g58"
       transform="matrix(1,0,0,0.98755554,264.9336,444.05105)"><path
         d="m 0,0 c 0.003,-1.172 -0.944,-2.125 -2.116,-2.129 -1.172,-0.004 -2.125,0.943 -2.129,2.116 -0.004,1.172 0.944,2.125 2.116,2.129 C -0.957,2.119 -0.004,1.172 0,0"
         style="fill:#ffffff;fill-opacity:1;fill-rule:nonzero;stroke:none"
         id="path60" /></g><g
       id="g62"
       transform="matrix(1,0,0,0.98755554,274.0371,444.07899)"><path
         d="m 0,0 c 0.003,-1.172 -0.944,-2.125 -2.116,-2.129 -1.172,-0.004 -2.125,0.943 -2.129,2.116 -0.004,1.172 0.944,2.125 2.116,2.129 C -0.957,2.12 -0.004,1.172 0,0"
         style="fill:#ffffff;fill-opacity:1;fill-rule:nonzero;stroke:none"
         id="path64" /></g><g
       id="g66"
       transform="matrix(1,0,0,0.98755554,283.1406,444.10704)"><path
         d="m 0,0 c 0.003,-1.172 -0.944,-2.125 -2.116,-2.129 -1.172,-0.004 -2.125,0.944 -2.129,2.116 -0.004,1.172 0.944,2.125 2.116,2.129 C -0.957,2.119 -0.004,1.172 0,0"
         style="fill:#ffffff;fill-opacity:1;fill-rule:nonzero;stroke:none"
         id="path68" /></g><g
       id="g70"
       transform="matrix(1,0,0,0.98755554,626.7129,387.26275)"><path
         d="m 0,0 h -49.678 c -4.825,0 -8.736,3.912 -8.736,8.737 v 46.185 c 0,3.658 2.965,6.623 6.623,6.623 H 0 c 3.658,0 6.624,-2.965 6.624,-6.623 V 6.624 C 6.624,2.965 3.658,0 0,0"
         style="fill:#0083c8;fill-opacity:1;fill-rule:nonzero;stroke:none"
         id="path72" /></g><g
       id="g74"
       transform="matrix(1,0,0,0.98755554,614.084,409.14372)"><path
         d="M 0,0 C -0.275,-0.276 -0.551,-0.551 -0.827,-0.827 -1.31,-1.241 -1.723,-1.723 -2.206,-2.206 -2.895,-2.895 -3.653,-3.24 -4.687,-3.24 h -0.345 c -2.068,0.138 -3.998,0.965 -5.377,1.655 -3.929,1.93 -7.376,4.618 -10.271,8.065 -2.343,2.826 -3.929,5.515 -5.032,8.341 -0.689,1.654 -0.965,2.964 -0.827,4.274 0.068,0.758 0.345,1.447 0.965,1.999 l 2.344,2.343 c 0.207,0.208 0.551,0.483 0.964,0.483 0.414,0 0.69,-0.207 0.965,-0.483 0.414,-0.413 0.828,-0.827 1.241,-1.24 0.207,-0.207 0.414,-0.483 0.69,-0.69 l 1.93,-1.93 c 0.207,-0.206 0.483,-0.62 0.483,-0.965 0,-0.413 -0.276,-0.758 -0.483,-0.965 -0.206,-0.207 -0.414,-0.414 -0.621,-0.62 -0.62,-0.621 -1.171,-1.172 -1.723,-1.724 l -0.069,-0.069 c -0.689,-0.689 -0.551,-1.309 -0.414,-1.723 v -0.069 c 0.483,-1.241 1.242,-2.343 2.276,-3.722 1.929,-2.413 3.998,-4.274 6.272,-5.722 0.277,-0.206 0.621,-0.345 0.897,-0.482 0.275,-0.138 0.482,-0.207 0.689,-0.345 l 0.069,-0.069 c 0.689,-0.345 1.378,-0.206 1.93,0.345 l 2.412,2.412 c 0.207,0.207 0.552,0.483 0.966,0.483 0.345,0 0.69,-0.276 0.896,-0.483 L 0,1.999 C 0.621,1.379 0.621,0.689 0,0 m 1.586,3.584 -3.86,3.861 c -0.69,0.758 -1.586,1.172 -2.482,1.172 -0.896,0 -1.793,-0.414 -2.482,-1.103 L -9.443,5.308 c -0.139,0.069 -0.277,0.138 -0.414,0.207 -0.276,0.138 -0.483,0.207 -0.69,0.344 -2.067,1.31 -3.929,3.034 -5.722,5.24 -0.827,1.033 -1.447,1.999 -1.792,2.826 0.552,0.482 1.035,1.034 1.517,1.516 0.207,0.207 0.414,0.414 0.62,0.621 0.759,0.758 1.172,1.654 1.172,2.55 0,0.896 -0.413,1.792 -1.172,2.551 l -1.93,1.93 c -0.207,0.207 -0.414,0.413 -0.62,0.689 -0.414,0.414 -0.896,0.896 -1.31,1.31 -0.689,0.689 -1.585,1.103 -2.482,1.103 -0.895,0 -1.722,-0.345 -2.481,-1.103 l -2.413,-2.413 c -0.896,-0.896 -1.447,-2.068 -1.585,-3.377 -0.138,-2.069 0.413,-3.999 0.896,-5.239 1.103,-3.171 2.827,-5.998 5.376,-9.031 3.103,-3.653 6.756,-6.549 11.031,-8.616 1.585,-0.759 3.791,-1.655 6.204,-1.862 h 0.482 c 1.654,0 3.033,0.621 4.136,1.793 l 0.069,0.069 c 0.344,0.413 0.758,0.827 1.24,1.24 0.276,0.276 0.621,0.621 0.897,0.896 1.447,1.517 1.447,3.585 0,5.032"
         style="fill:#ffffff;fill-opacity:1;fill-rule:nonzero;stroke:none"
         id="path76" /></g><g
       id="g78"
       transform="matrix(1,0,0,0.98755554,147.459,340.13304)"><path
         d="m 0,0 h -55.68 c -5.408,0 -9.792,4.384 -9.792,9.792 v 51.766 c 0,4.1 3.324,7.423 7.424,7.423 H 0 c 4.1,0 7.424,-3.323 7.424,-7.423 V 7.424 C 7.424,3.324 4.1,0 0,0"
         style="fill:#ffcc05;fill-opacity:1;fill-rule:nonzero;stroke:none"
         id="path80" /></g><g
       id="g82"
       transform="matrix(1,0,0,0.98755554,136.0986,375.71447)"><path
         d="M 0,0 H -8.434 C -8.48,2.536 -8.81,5.072 -9.438,7.607 h 7.163 C -0.982,5.338 -0.177,2.754 0,0 m -2.275,-9.901 h -7.389 c 0.668,2.535 1.071,5.07 1.195,7.607 H 0 C -0.176,-5.049 -0.981,-7.632 -2.275,-9.901 M -12.76,-18.16 c 0.963,1.988 1.77,3.975 2.419,5.964 h 6.507 c -2.258,-2.823 -5.361,-4.938 -8.926,-5.964 m -4.904,-0.689 c -0.786,0 -1.56,0.051 -2.319,0.15 -1.081,2.168 -2.002,4.335 -2.744,6.503 h 10.126 c -0.741,-2.168 -1.663,-4.335 -2.744,-6.503 -0.759,-0.099 -1.532,-0.15 -2.319,-0.15 m -13.829,6.653 h 6.507 c 0.648,-1.988 1.456,-3.976 2.418,-5.964 -3.565,1.026 -6.668,3.141 -8.925,5.964 m -1.559,2.295 c -1.294,2.269 -2.1,4.852 -2.276,7.607 h 8.47 c 0.124,-2.536 0.526,-5.072 1.194,-7.607 z m 0,17.508 h 7.162 C -26.518,5.072 -26.847,2.536 -26.894,0 h -8.434 c 0.177,2.754 0.982,5.338 2.276,7.607 m 10.243,8.187 c -0.996,-1.964 -1.804,-3.928 -2.431,-5.892 h -6.253 c 2.206,2.758 5.221,4.842 8.684,5.892 m 5.145,0.761 c 0.943,0 1.869,-0.075 2.772,-0.216 1.203,-2.146 2.144,-4.292 2.846,-6.437 h -11.235 c 0.7,2.145 1.643,4.291 2.845,6.437 0.903,0.141 1.829,0.216 2.772,0.216 m 7.128,-18.849 c -0.173,-2.536 -0.632,-5.072 -1.348,-7.607 h -11.56 c -0.716,2.535 -1.175,5.07 -1.348,7.607 z M -24.869,0 c 0.003,2.536 0.303,5.072 0.93,7.607 h 12.551 c 0.627,-2.535 0.926,-5.071 0.93,-7.607 z m 21.035,9.902 h -6.253 c -0.628,1.964 -1.435,3.928 -2.432,5.892 3.464,-1.05 6.478,-3.134 8.685,-5.892 m -27.705,2.825 c -7.62,-7.62 -7.619,-20.128 0,-27.749 7.621,-7.62 20.13,-7.62 27.749,0 7.621,7.62 7.621,20.129 0,27.749 -7.62,7.621 -20.128,7.621 -27.749,0"
         style="fill:#ffffff;fill-opacity:1;fill-rule:nonzero;stroke:none"
         id="path84" /></g><g
       id="g86"
       transform="matrix(1,0,0,0.98755554,682.8105,202.77315)"><path
         d="m 0,0 h -53.055 c -5.153,0 -9.33,4.178 -9.33,9.331 v 49.325 c 0,3.907 3.167,7.073 7.073,7.073 H 0 c 3.907,0 7.074,-3.166 7.074,-7.073 V 7.074 C 7.074,3.167 3.907,0 0,0"
         style="fill:#6fc7bf;fill-opacity:1;fill-rule:nonzero;stroke:none"
         id="path88" /></g><g
       id="g90"
       transform="matrix(1,0,0,0.98755554,648.5293,240.53362)"><path
         d="m 0,0 c 0,3.494 2.832,6.326 6.325,6.326 3.494,0 6.326,-2.832 6.326,-6.326 0,-3.493 -2.832,-6.325 -6.326,-6.325 C 2.834,-6.321 0.004,-3.492 0,0 m 14.76,0 c 0,4.658 -3.777,8.435 -8.435,8.435 -4.657,0 -8.433,-3.777 -8.433,-8.435 0,-4.657 3.776,-8.434 8.433,-8.434 4.656,0.005 8.429,3.779 8.435,8.434"
         style="fill:#ffffff;fill-opacity:1;fill-rule:nonzero;stroke:none"
         id="path92" /></g><g
       id="g94"
       transform="matrix(1,0,0,0.98755554,654.8545,251.9865)"><path
         d="M 0,0 C 6.405,0 11.597,-5.192 11.597,-11.597 11.597,-16.641 3.889,-28.556 0,-34.04 -3.888,-28.556 -11.596,-16.641 -11.596,-11.597 -11.596,-5.192 -6.404,0 0,0 m -0.851,-36.467 c 0.344,-0.47 1.004,-0.573 1.474,-0.229 0.087,0.065 0.164,0.141 0.229,0.229 0.085,0.117 0.486,0.667 1.095,1.533 l 6.224,9.625 c 2.891,4.932 5.535,10.356 5.535,13.712 0,7.569 -6.137,13.705 -13.706,13.705 -7.568,0 -13.705,-6.136 -13.705,-13.705 0,-3.259 2.495,-8.47 5.287,-13.284 l 6.475,-10.058 c 0.608,-0.863 1.007,-1.411 1.092,-1.528"
         style="fill:#ffffff;fill-opacity:1;fill-rule:nonzero;stroke:none"
         id="path96" /></g><g
       id="g98"
       transform="matrix(1,0,0,0.98755554,165.5176,256.99321)"><path
         d="m 0,0 -4.256,-10.234 c 0,0 24.521,-17.564 44.808,-27.647 6.399,-3.18 13.835,2.047 13.438,9.182 -0.005,0.073 -0.009,0.146 -0.013,0.22 -0.218,3.87 -2.764,7.221 -6.435,8.465 C 26.799,-12.983 22.747,-10.181 0,0"
         style="fill:#d97f48;fill-opacity:1;fill-rule:nonzero;stroke:none"
         id="path100" /></g><g
       id="g102"
       transform="matrix(1,0,0,0.98755554,164.5034,245.98345)"><path
         d="M 0,0 C 0,0 -21.209,-9.348 -29.007,4.215 L 3.157,12.198 Z"
         style="fill:#d97f48;fill-opacity:1;fill-rule:nonzero;stroke:none"
         id="path104" /></g><g
       id="g106"
       transform="matrix(1,0,0,0.98755554,230.6104,292.95791)"><path
         d="m 0,0 c -10.14,-17.367 -22.369,-42.227 -29.087,-61.168 -1.735,-4.893 0.045,-10.359 4.767,-12.515 0.056,-0.026 0.112,-0.051 0.168,-0.077 4.627,-2.126 10.101,-0.391 12.569,4.062 15.329,27.658 28.982,49.211 28.982,49.211 z"
         style="fill:#d97f48;fill-opacity:1;fill-rule:nonzero;stroke:none"
         id="path108" /></g><g
       id="g110"
       transform="matrix(1,0,0,0.98755554,231.0259,297.6884)"><path
         d="M 0,0 C 0,0 -15.238,-3.236 -27.983,-40.855 L 0.7,-57.871 11.275,-36.868 Z"
         style="fill:#6fc7bf;fill-opacity:1;fill-rule:nonzero;stroke:none"
         id="path112" /></g><g
       id="g114"
       transform="matrix(1,0,0,0.98755554,216.9253,249.88834)"><path
         d="M 0,0 H -33.101 V 5.302 H 0 C 1.463,5.302 2.65,4.115 2.65,2.651 2.65,1.187 1.463,0 0,0"
         style="fill:#08101c;fill-opacity:1;fill-rule:nonzero;stroke:none"
         id="path116" /></g><g
       id="g118"
       transform="matrix(1,0,0,0.98755554,196.9854,249.9077)"><path
         d="m 0,0 h -75.424 c -1.765,0 -3.326,1.146 -3.855,2.83 l -13.363,44.677 c -0.58,1.847 0.8,3.727 2.736,3.727 h 71.517 c 1.765,0 3.326,-1.146 3.855,-2.83 z"
         style="fill:#111d36;fill-opacity:1;fill-rule:nonzero;stroke:none"
         id="path120" /></g><g
       id="g122"
       transform="matrix(1,0,0,0.98755554,153.4614,276.95408)"><path
         d="m 0,0 c 0.559,-3.105 -1.505,-6.077 -4.61,-6.636 -3.106,-0.559 -6.077,1.505 -6.637,4.61 -0.559,3.106 1.505,6.077 4.611,6.636 C -3.531,5.169 -0.56,3.105 0,0"
         style="fill:#e6f5fa;fill-opacity:1;fill-rule:nonzero;stroke:none"
         id="path124" /></g><g
       id="g126"
       transform="matrix(1,0,0,0.98755554,298.7266,244.7973)"><path
         d="m 0,0 c 0,0 18.203,-65.719 25.63,-122.884 l 12.497,2.369 c 0,0 -3.879,83.763 -16.484,135.58 z"
         style="fill:#d97f48;fill-opacity:1;fill-rule:nonzero;stroke:none"
         id="path128" /></g><g
       id="g130"
       transform="matrix(1,0,0,0.98755554,336.7524,128.61386)"><path
         d="m 0,0 c 0,0 18.806,-27.769 -3.764,-40.25 -1.487,-0.822 -3.365,-0.487 -4.465,0.808 l -0.146,0.171 c -1.214,1.43 -1.077,3.524 0.241,4.859 3.205,3.25 7.518,9.985 0.645,18.782 0,0 -3.607,-0.921 -3.003,-8.082 0.156,-1.843 -1.375,-3.396 -3.216,-3.221 -1.256,0.12 -2.289,1.018 -2.595,2.243 -1.183,4.72 -3.141,16.429 4.406,22.719 z"
         style="fill:#d97f48;fill-opacity:1;fill-rule:nonzero;stroke:none"
         id="path132" /></g><g
       id="g134"
       transform="matrix(1,0,0,0.98755554,301.0928,297.6884)"><path
         d="m 0,0 c 0,0 11.644,-3.395 24.059,-42.716 l -28.683,-17.015 -6.651,22.863 z"
         style="fill:#6fc7bf;fill-opacity:1;fill-rule:nonzero;stroke:none"
         id="path136" /></g><g
       id="g138"
       transform="matrix(1,0,0,0.98755554,299.3379,298.74104)"><path
         d="M 0,0 -21.607,8.601 -43.821,8.303 -66.11,0.133 c -4.183,-1.533 -6.53,-5.98 -5.435,-10.298 l 16.368,-64.567 h 43.852 L 3.794,-7.185 C 4.466,-4.183 2.858,-1.138 0,0"
         style="fill:#6fc7bf;fill-opacity:1;fill-rule:nonzero;stroke:none"
         id="path140" /></g><path
       d="m 288.013,218.01005 h -43.852 v 6.92968 h 43.852 z"
       style="fill:#111d36;fill-opacity:1;fill-rule:nonzero;stroke:none;stroke-width:0.993758"
       id="path142" /><g
       id="g144"
       transform="matrix(1,0,0,0.98755554,237.6108,250.45638)"><path
         d="M 0,0 -7.525,29.685"
         style="fill:none;stroke:#51a99f;stroke-width:1.368;stroke-linecap:butt;stroke-linejoin:miter;stroke-miterlimit:10;stroke-dasharray:none;stroke-opacity:1"
         id="path146" /></g><g
       id="g148"
       transform="matrix(1,0,0,0.98755554,293.4526,248.9394)"><path
         d="M 0,0 6.988,31.221"
         style="fill:none;stroke:#51a99f;stroke-width:1.368;stroke-linecap:butt;stroke-linejoin:miter;stroke-miterlimit:10;stroke-dasharray:none;stroke-opacity:1"
         id="path150" /></g><g
       id="g152"
       transform="matrix(1,0,0,0.98755554,288.0132,218.00985)"><path
         d="m 0,0 h -43.852 c 0,0 -21.25,-5.385 -35.468,-104.915 -2.167,-15.17 -4.036,-29.957 -5.65,-44.133 h 41.412 l 18.296,91.857 4.001,-1.052 6.754,-90.805 H 24.4 l 0.813,49.054 c 0,0 -3.505,79.841 -25.213,99.994"
         style="fill:#006ab8;fill-opacity:1;fill-rule:nonzero;stroke:none"
         id="path154" /></g><g
       id="g156"
       transform="matrix(1,0,0,0.98755554,266.7524,160.49146)"><path
         d="M 0,0 -13.626,5.32"
         style="fill:none;stroke:#005a94;stroke-width:1.368;stroke-linecap:butt;stroke-linejoin:miter;stroke-miterlimit:10;stroke-dasharray:none;stroke-opacity:1"
         id="path158" /></g><g
       id="g160"
       transform="matrix(1,0,0,0.98755554,302.6704,344.42368)"><path
         d="m 0,0 c -1.94,7.361 -2.646,6.045 -9.172,20.685 -3.899,8.747 -6.916,12.263 -8.714,13.678 v 0 c 0,0 -6.593,7.097 -18.387,7.097 -11.261,0 -17.782,-6.744 -17.782,-6.744 -1.71,-1.139 -4.924,-4.444 -9.198,-14.031 C -69.779,6.045 -70.485,7.361 -72.425,0 c -1.941,-7.361 0.529,-20.943 15.698,-23.589 0,0 -1.94,1.94 -2.645,5.115 0,0 6.35,-8.643 14.993,-8.114 h 16.333 c 8.643,-0.529 14.993,8.114 14.993,8.114 -0.705,-3.175 -2.646,-5.115 -2.646,-5.115 C -0.529,-20.943 1.94,-7.361 0,0"
         style="fill:#111d36;fill-opacity:1;fill-rule:nonzero;stroke:none"
         id="path162" /></g><g
       id="g164"
       transform="matrix(1,0,0,0.98755554,286.6738,303.7193)"><path
         d="m 0,0 -8.943,3.56 -2.7,23.528 c 0,0 -2.787,-2.84 -6.485,-3.528 -3.698,-0.687 -7.28,1.475 -7.325,1.502 -0.046,0.026 -3.02,2.503 -3.02,2.503 L -31.157,3.262 -40.902,-0.31 c 0,0 0.629,-6.331 21.24,-6.331 C 0.95,-6.641 0,0 0,0"
         style="fill:#d97f48;fill-opacity:1;fill-rule:nonzero;stroke:none"
         id="path166" /></g><g
       id="g168"
       transform="matrix(1,0,0,0.98755554,256.4995,330.10847)"><path
         d="m 0,0 c 0,0 5.662,-10.932 12.403,-9.366 7.037,1.636 7.006,10.88 7.006,10.88 z"
         style="fill:#111d36;fill-opacity:1;fill-rule:nonzero;stroke:none"
         id="path170" /></g><g
       id="g172"
       transform="matrix(1,0,0,0.98755554,290.7007,361.13598)"><path
         d="m 0,0 c 0,-13.388 -10.418,-24.241 -23.27,-24.241 -12.851,0 -23.27,10.853 -23.27,24.241 0,13.388 10.419,22.496 23.27,22.496 C -10.418,22.496 0,13.388 0,0"
         style="fill:#111d36;fill-opacity:1;fill-rule:nonzero;stroke:none"
         id="path174" /></g><g
       id="g176"
       transform="matrix(1,0,0,0.98755554,286.6597,359.90391)"><path
         d="m 0,0 c 0,-8.346 -1.161,-15.549 -2.32,-20.661 -1.136,-5.004 -4.329,-8.502 -8.842,-11.317 l -0.822,-0.513 c -4.775,-2.978 -10.945,-3.048 -15.793,-0.177 -4.89,2.895 -8.314,6.711 -9.367,12.082 C -39.061,-10.818 -39.27,0 -39.27,0 c 0,0 -1.823,21.07 19.355,20.661 C 1.263,20.251 0,0 0,0"
         style="fill:#d97f48;fill-opacity:1;fill-rule:nonzero;stroke:none"
         id="path178" /></g><g
       id="g180"
       transform="matrix(1,0,0,0.98755554,249.6992,340.36255)"><path
         d="m 0,0 c -3.731,-3.222 -11.588,9.537 -7.975,12.977 3.614,3.44 6.169,-2.158 6.169,-2.158 L -1.073,6.787 0.018,1.361 0.299,0.144 Z"
         style="fill:#d97f48;fill-opacity:1;fill-rule:nonzero;stroke:none"
         id="path182" /></g><g
       id="g184"
       transform="matrix(1,0,0,0.98755554,243.3472,348.93177)"><path
         d="M 0,0 C 0,0 1.527,3.305 5.08,-2.498"
         style="fill:none;stroke:#111d36;stroke-width:1.004;stroke-linecap:round;stroke-linejoin:round;stroke-miterlimit:10;stroke-dasharray:none;stroke-opacity:1"
         id="path186" /></g><g
       id="g188"
       transform="matrix(1,0,0,0.98755554,284.3291,340.28878)"><path
         d="M 0,0 C 3.786,-3.158 11.423,9.733 7.751,13.111 4.079,16.489 1.62,10.848 1.62,10.848 L 0.956,6.805 -0.042,1.36 -0.302,0.139 Z"
         style="fill:#d97f48;fill-opacity:1;fill-rule:nonzero;stroke:none"
         id="path190" /></g><g
       id="g192"
       transform="matrix(1,0,0,0.98755554,290.5312,348.96416)"><path
         d="M 0,0 C 0,0 -1.583,3.278 -5.036,-2.584"
         style="fill:none;stroke:#111d36;stroke-width:1.004;stroke-linecap:round;stroke-linejoin:round;stroke-miterlimit:10;stroke-dasharray:none;stroke-opacity:1"
         id="path194" /></g><g
       id="g196"
       transform="matrix(1,0,0,0.98755554,247.6616,353.42307)"><path
         d="m 0,0 c 0,0 8.468,11.447 6.515,23.044 0,0 -6.285,-3.163 -7.922,-11.326 C -3.043,3.555 0,0 0,0"
         style="fill:#111d36;fill-opacity:1;fill-rule:nonzero;stroke:none"
         id="path198" /></g><g
       id="g200"
       transform="matrix(1,0,0,0.98755554,287.0151,353.20176)"><path
         d="m 0,0 c 0,0 -10.177,12.45 -8.224,24.046 0,0 6.822,-3.941 8.459,-12.104 C 1.872,3.779 0,0 0,0"
         style="fill:#111d36;fill-opacity:1;fill-rule:nonzero;stroke:none"
         id="path202" /></g><g
       id="g204"
       transform="matrix(1,0,0,0.98755554,241.3794,361.55401)"><path
         d="m 0,0 h 51.266 c 0,0 -5.775,21.717 -27.396,23.011 C 2.248,24.306 0,0 0,0"
         style="fill:#111d36;fill-opacity:1;fill-rule:nonzero;stroke:none"
         id="path206" /></g><g
       id="g208"
       transform="matrix(1,0,0,0.98755554,259.5933,351.82264)"><path
         d="m 0,0 c 0,-1.078 -0.875,-1.953 -1.953,-1.953 -1.078,0 -1.952,0.875 -1.952,1.953 0,1.078 0.874,1.952 1.952,1.952 C -0.875,1.952 0,1.078 0,0"
         style="fill:#111d36;fill-opacity:1;fill-rule:nonzero;stroke:none"
         id="path210" /></g><g
       id="g212"
       transform="matrix(1,0,0,0.98755554,277.6704,351.82264)"><path
         d="m 0,0 c 0,-1.078 -0.874,-1.953 -1.953,-1.953 -1.078,0 -1.952,0.875 -1.952,1.953 0,1.078 0.874,1.952 1.952,1.952 C -0.874,1.952 0,1.078 0,0"
         style="fill:#111d36;fill-opacity:1;fill-rule:nonzero;stroke:none"
         id="path214" /></g><g
       id="g216"
       transform="matrix(1,0,0,0.98755554,265.7002,347.62217)"><path
         d="m 0,0 0.002,-2.635 c 0.001,-0.664 0.591,-1.162 1.221,-1.03 l 1.401,0.294"
         style="fill:none;stroke:#111d36;stroke-width:0.988;stroke-linecap:round;stroke-linejoin:round;stroke-miterlimit:10;stroke-dasharray:none;stroke-opacity:1"
         id="path218" /></g><g
       id="g220"
       transform="matrix(1,0,0,0.98755554,263.4419,357.79666)"><path
         d="m 0,0 -11.833,-1.422 c 0,0 0.95,3.139 5.785,3.677 C -1.213,2.794 0,0 0,0"
         style="fill:#111d36;fill-opacity:1;fill-rule:nonzero;stroke:none"
         id="path222" /></g><g
       id="g224"
       transform="matrix(1,0,0,0.98755554,270.2646,357.79666)"><path
         d="m 0,0 11.833,-1.422 c 0,0 -0.95,3.139 -5.785,3.677 C 1.213,2.794 0,0 0,0"
         style="fill:#111d36;fill-opacity:1;fill-rule:nonzero;stroke:none"
         id="path226" /></g><g
       id="g228"
       transform="matrix(1,0,0,0.98755554,263.7935,351.88002)"><path
         d="m 0,0 c 0,-4.458 -3.615,-8.073 -8.073,-8.073 -4.459,0 -8.074,3.615 -8.074,8.073 0,4.459 3.615,8.074 8.074,8.074 C -3.615,8.074 0,4.459 0,0 Z"
         style="fill:none;stroke:#6fc7bf;stroke-width:1.083;stroke-linecap:butt;stroke-linejoin:miter;stroke-miterlimit:10;stroke-dasharray:none;stroke-opacity:1"
         id="path230" /></g><g
       id="g232"
       transform="matrix(1,0,0,0.98755554,286.6597,351.88002)"><path
         d="m 0,0 c 0,-4.458 -3.615,-8.073 -8.074,-8.073 -4.458,0 -8.073,3.615 -8.073,8.073 0,4.459 3.615,8.074 8.073,8.074 C -3.615,8.074 0,4.459 0,0 Z"
         style="fill:none;stroke:#6fc7bf;stroke-width:1.083;stroke-linecap:butt;stroke-linejoin:miter;stroke-miterlimit:10;stroke-dasharray:none;stroke-opacity:1"
         id="path234" /></g><g
       id="g236"
       transform="matrix(1,0,0,0.98755554,263.7935,351.21697)"><path
         d="M 0,0 C 0,0 2.851,4.384 6.719,0"
         style="fill:none;stroke:#6fc7bf;stroke-width:1.083;stroke-linecap:butt;stroke-linejoin:miter;stroke-miterlimit:10;stroke-dasharray:none;stroke-opacity:1"
         id="path238" /></g><g
       id="g240"
       transform="matrix(1,0,0,0.98755554,260.7129,340.35534)"><path
         d="M 0,0 H 12.88 C 12.88,0 6.845,-7.197 0,0"
         style="fill:#ffffff;fill-opacity:1;fill-rule:nonzero;stroke:none"
         id="path242" /></g><g
       id="g244"
       transform="matrix(1,0,0,0.98755554,540.3467,276.97097)"><path
         d="m 0,0 29.403,-25.447 c 5.562,-4.813 6.247,-13.192 1.544,-18.845 -4.726,-5.681 -13.14,-6.507 -18.881,-1.854 l -29.133,23.609 z"
         style="fill:#f7a771;fill-opacity:1;fill-rule:nonzero;stroke:none"
         id="path246" /></g><g
       id="g248"
       transform="matrix(1,0,0,0.98755554,502.8818,301.5851)"><path
         d="M 0,0 C 21.385,-3.456 44.854,-24.924 44.854,-24.924 L 25.443,-52.691 -0.116,-31.756 Z"
         style="fill:#0083c8;fill-opacity:1;fill-rule:nonzero;stroke:none"
         id="path250" /></g><g
       id="g252"
       transform="matrix(1,0,0,0.98755554,571.3926,304.53423)"><path
         d="m 0,0 -21.137,-60.391 c -2.358,-6.676 1.375,-13.962 8.172,-15.946 7.16,-2.091 14.524,2.603 15.65,9.977 l 10.839,64.125 z"
         style="fill:#f7a771;fill-opacity:1;fill-rule:nonzero;stroke:none"
         id="path254" /></g><g
       id="g256"
       transform="matrix(1,0,0,0.98755554,571.3926,304.53423)"><path
         d="m 0,0 c 0,0 -4.154,5.352 -4.977,20.655 -0.051,0.956 0.496,1.852 1.362,2.26 1.269,0.599 2.779,-0.032 3.246,-1.356 L 1.734,15.17 13.524,-2.235 Z"
         style="fill:#f7a771;fill-opacity:1;fill-rule:nonzero;stroke:none"
         id="path258" /></g><g
       id="g260"
       transform="matrix(1,0,0,0.98755554,573.127,319.51585)"><path
         d="m 0,0 0.511,21.237 c 0.043,0.904 0.641,2.173 1.796,2.222 1.256,0.139 2.212,-0.74 2.243,-1.726 L 5.028,6.675 7.829,24.282 c 0.137,0.856 0.922,1.453 1.783,1.355 0.847,-0.097 1.474,-0.835 1.433,-1.686 L 10.131,4.84 13.964,20.544 c 0.207,0.85 0.995,1.429 1.868,1.373 1.029,-0.066 1.795,-0.98 1.678,-2.006 L 15.54,2.68 23.154,13.403 c 0.655,0.779 1.841,0.813 2.539,0.074 0.524,-0.554 0.616,-1.388 0.224,-2.042 l -6.404,-12.98 c 0,0 -0.403,-8.076 -7.723,-15.86 L 0.474,-10.68 Z"
         style="fill:#f7a771;fill-opacity:1;fill-rule:nonzero;stroke:none"
         id="path262" /></g><g
       id="g264"
       transform="matrix(1,0,0,0.98755554,573.127,319.51585)"><path
         d="M 0,0 C 0,0 8.006,-0.035 8.155,-7.224"
         style="fill:none;stroke:#111d36;stroke-width:1.017;stroke-linecap:round;stroke-linejoin:round;stroke-miterlimit:10;stroke-dasharray:none;stroke-opacity:1"
         id="path266" /></g><g
       id="g268"
       transform="matrix(1,0,0,0.98755554,500.7129,303.22365)"><path
         d="m 0,0 15.993,-6.062 c 4.183,-1.533 5.249,-6.175 4.154,-10.493 l -7.391,-91.497 h -63.089 l -4.859,94.477 c -0.672,3.002 0.936,6.047 3.794,7.184 l 21.607,8.601 z"
         style="fill:#0083c8;fill-opacity:1;fill-rule:nonzero;stroke:none"
         id="path270" /></g><g
       id="g272"
       transform="matrix(1,0,0,0.98755554,518.459,257.52985)"><path
         d="M 0,0 1.476,18.265"
         style="fill:none;stroke:#00678d;stroke-width:1.458;stroke-linecap:butt;stroke-linejoin:miter;stroke-miterlimit:10;stroke-dasharray:none;stroke-opacity:1"
         id="path274" /></g><g
       id="g276"
       transform="matrix(1,0,0,0.98755554,446.9912,241.03027)"><path
         d="m 0,0 c 0,0 -17.142,-66.617 -21.428,-124.103 l -12.608,1.682 c 0,0 1.852,83.849 11.6,136.278 z"
         style="fill:#f7a771;fill-opacity:1;fill-rule:nonzero;stroke:none"
         id="path278" /></g><g
       id="g280"
       transform="matrix(1,0,0,0.98755554,447.5596,295.86034)"><path
         d="m 0,0 c 0,0 -14.209,-3.395 -26.624,-42.716 l 31.248,-17.016 6.651,22.864 z"
         style="fill:#0083c8;fill-opacity:1;fill-rule:nonzero;stroke:none"
         id="path282" /></g><g
       id="g284"
       transform="matrix(1,0,0,0.98755554,493.4961,305.36704)"><path
         d="m 0,0 -1.235,22.675 c 0,0 -4.189,-2.925 -7.996,-3.632 -3.807,-0.708 -7.494,1.519 -7.54,1.545 -0.047,0.027 -4.429,2.578 -4.429,2.578 l -1.334,-23.124 -0.04,-0.002 -6.663,-2.652 c 0,0 4.185,-7.13 18.144,-6.405 13.96,0.725 18.31,6.847 18.31,6.847 z"
         style="fill:#f7a771;fill-opacity:1;fill-rule:nonzero;stroke:none"
         id="path286" /></g><g
       id="g288"
       transform="matrix(1,0,0,0.98755554,471.3936,327.38686)"><path
         d="m 0,0 c 0,0 6.166,-11.253 13.508,-9.641 7.665,1.683 7.953,11.494 7.953,11.494 z"
         style="fill:#111d36;fill-opacity:1;fill-rule:nonzero;stroke:none"
         id="path290" /></g><g
       id="g292"
       transform="matrix(1,0,0,0.98755554,502.9111,358.05846)"><path
         d="m 0,0 c 0,-8.592 -1.195,-16.006 -2.389,-21.268 -1.168,-5.152 -4.455,-8.752 -9.101,-11.65 l -0.846,-0.528 c -4.916,-3.066 -11.267,-3.138 -16.258,-0.183 -5.033,2.98 -8.557,6.909 -9.642,12.438 C -40.209,-11.136 -40.425,0 -40.425,0 c 0,0 -1.877,21.689 19.925,21.268 C 1.301,20.847 0,0 0,0"
         style="fill:#f7a771;fill-opacity:1;fill-rule:nonzero;stroke:none"
         id="path294" /></g><g
       id="g296"
       transform="matrix(1,0,0,0.98755554,464.8643,337.94235)"><path
         d="m 0,0 c -3.842,-3.317 -11.929,9.817 -8.209,13.358 3.72,3.541 6.351,-2.221 6.351,-2.221 l 0.754,-4.15 1.123,-5.586 0.29,-1.253 z"
         style="fill:#f7a771;fill-opacity:1;fill-rule:nonzero;stroke:none"
         id="path298" /></g><g
       id="g300"
       transform="matrix(1,0,0,0.98755554,458.3252,346.76329)"><path
         d="M 0,0 C 0,0 1.572,3.402 5.229,-2.571"
         style="fill:none;stroke:#111d36;stroke-width:1.033;stroke-linecap:round;stroke-linejoin:round;stroke-miterlimit:10;stroke-dasharray:none;stroke-opacity:1"
         id="path302" /></g><g
       id="g304"
       transform="matrix(1,0,0,0.98755554,500.5127,337.86621)"><path
         d="m 0,0 c 3.897,-3.25 11.759,10.02 7.979,13.497 -3.78,3.477 -6.312,-2.33 -6.312,-2.33 L 0.984,7.005 -0.043,1.4 -0.312,0.143 Z"
         style="fill:#f7a771;fill-opacity:1;fill-rule:nonzero;stroke:none"
         id="path306" /></g><g
       id="g308"
       transform="matrix(1,0,0,0.98755554,506.8965,346.79707)"><path
         d="M 0,0 C 0,0 -1.63,3.374 -5.184,-2.661"
         style="fill:none;stroke:#111d36;stroke-width:1.033;stroke-linecap:round;stroke-linejoin:round;stroke-miterlimit:10;stroke-dasharray:none;stroke-opacity:1"
         id="path310" /></g><g
       id="g312"
       transform="matrix(1,0,0,0.98755554,475.0488,351.04336)"><path
         d="m 0,0 c 0,-1.11 -0.899,-2.01 -2.01,-2.01 -1.11,0 -2.01,0.9 -2.01,2.01 0,1.11 0.9,2.01 2.01,2.01 C -0.899,2.01 0,1.11 0,0"
         style="fill:#111d36;fill-opacity:1;fill-rule:nonzero;stroke:none"
         id="path314" /></g><g
       id="g316"
       transform="matrix(1,0,0,0.98755554,493.6582,351.04336)"><path
         d="m 0,0 c 0,-1.11 -0.9,-2.01 -2.01,-2.01 -1.11,0 -2.01,0.9 -2.01,2.01 0,1.11 0.9,2.01 2.01,2.01 C -0.9,2.01 0,1.11 0,0"
         style="fill:#111d36;fill-opacity:1;fill-rule:nonzero;stroke:none"
         id="path318" /></g><g
       id="g320"
       transform="matrix(1,0,0,0.98755554,481.3359,348.02282)"><path
         d="M 0,0 0.002,-4.032 C 0.003,-4.716 0.61,-5.229 1.259,-5.092 L 2.701,-4.79"
         style="fill:none;stroke:#111d36;stroke-width:1.017;stroke-linecap:round;stroke-linejoin:round;stroke-miterlimit:10;stroke-dasharray:none;stroke-opacity:1"
         id="path322" /></g><g
       id="g324"
       transform="matrix(1,0,0,0.98755554,485.458,358.32471)"><path
         d="m 0,0 11.598,-2.996 c 0,0 -0.527,3.253 -5.272,4.435 C 1.581,2.622 0,0 0,0"
         style="fill:#111d36;fill-opacity:1;fill-rule:nonzero;stroke:none"
         id="path326" /></g><g
       id="g328"
       transform="matrix(1,0,0,0.98755554,478.251,358.32471)"><path
         d="m 0,0 -11.599,-2.996 c 0,0 0.528,3.253 5.272,4.435 C -1.582,2.622 0,0 0,0"
         style="fill:#111d36;fill-opacity:1;fill-rule:nonzero;stroke:none"
         id="path330" /></g><g
       id="g332"
       transform="matrix(1,0,0,0.98755554,481.3818,337.15882)"><path
         d="m 0,0 c 0.426,0.275 0.737,0.707 0.87,1.198 0.272,1 0.389,2.596 -1.537,2.777 -2.827,0.265 -7.562,-5.174 -11.705,-2.057 0,0 3.96,-7.355 12.372,-1.918"
         style="fill:#111d36;fill-opacity:1;fill-rule:nonzero;stroke:none"
         id="path334" /></g><g
       id="g336"
       transform="matrix(1,0,0,0.98755554,482.958,337.15882)"><path
         d="m 0,0 c -0.424,0.275 -0.733,0.707 -0.866,1.198 -0.271,1 -0.387,2.596 1.53,2.777 C 3.479,4.24 8.194,-1.199 12.319,1.918 12.319,1.918 8.376,-5.437 0,0"
         style="fill:#111d36;fill-opacity:1;fill-rule:nonzero;stroke:none"
         id="path338" /></g><g
       id="g340"
       transform="matrix(1,0,0,0.98755554,502.4072,383.44032)"><path
         d="m 0,0 c -7.127,5.041 -20.692,0.352 -28.199,-2.918 0.219,2.376 -1.253,3.889 -1.253,3.889 -12.892,-3.955 -11.272,-11.297 -10.371,-13.639 -2.528,-2.659 -6.001,-9.29 0.591,-23.196 0,0 3.68,11.877 2.114,21.327 6.11,-2.765 22.698,-9.386 33.24,-5.172 0.362,-8.114 3.506,-16.155 3.506,-16.155 3.988,10.201 3.43,16.342 1.842,19.95 C 3.289,-13.743 8.642,-6.112 0,0"
         style="fill:#111d36;fill-opacity:1;fill-rule:nonzero;stroke:none"
         id="path342" /></g><g
       id="g344"
       transform="matrix(1,0,0,0.98755554,501.5029,70.816773)"><path
         d="M 0,0 H 40.542 C 25.568,63.986 13.82,108.216 13.82,108.216 l -1.854,19.067 h -30.782 l 1.391,-66.979 z"
         style="fill:#006ab8;fill-opacity:1;fill-rule:nonzero;stroke:none"
         id="path346" /></g><g
       id="g348"
       transform="matrix(1,0,0,0.98755554,484.0781,130.37003)"><path
         d="M 0,0 -1.392,66.979 H -33.698 C -57.878,30.793 -44.192,-33.512 -44.192,-33.512 l 3.684,-26.792 H 0 Z"
         style="fill:#006ab8;fill-opacity:1;fill-rule:nonzero;stroke:none"
         id="path350" /></g><g
       id="g352"
       transform="matrix(1,0,0,0.98755554,484.0781,130.37003)"><path
         d="M 0,0 V 18.98 L 9.153,33.161"
         style="fill:none;stroke:#005a94;stroke-width:1.368;stroke-linecap:butt;stroke-linejoin:miter;stroke-miterlimit:10;stroke-dasharray:none;stroke-opacity:1"
         id="path354" /></g><g
       id="g356"
       transform="matrix(1,0,0,0.98755554,359.6294,92.788896)"><path
         d="m 0,0 c 0,0 10.893,54.061 17.302,68.799 0.582,1.338 2.518,1.163 2.905,-0.243 1.543,-5.618 3.578,-22.171 2.669,-70.891 l 0.022,-19.914 h 38.231 l 5.633,47.927 c 0,0 8.517,66.799 -19.223,104.736 H -8.064 c 0,0 -28.352,-41.242 -32.087,-98.2 -0.831,-12.674 -2.263,-32.029 -3.988,-54.463 h 39.392 z"
         style="fill:#0083c8;fill-opacity:1;fill-rule:nonzero;stroke:none"
         id="path358" /></g><g
       id="g360"
       transform="matrix(1,0,0,0.98755554,367.4038,165.74555)"><path
         d="M 0,0 13.022,-5.32"
         style="fill:none;stroke:#00678d;stroke-width:1.458;stroke-linecap:butt;stroke-linejoin:miter;stroke-miterlimit:10;stroke-dasharray:none;stroke-opacity:1"
         id="path362" /></g><g
       id="g364"
       transform="matrix(1,0,0,0.98755554,367.252,325.70496)"><path
         d="m 0,0 -26.741,-7.352 11.054,-91.281 H 40.424 L 51.492,-6.952 21.85,0.401 Z"
         style="fill:#ffcc05;fill-opacity:1;fill-rule:nonzero;stroke:none"
         id="path366" /></g><path
       d="m 407.168,221.58006 h -55.603 v 6.71933 h 55.603 z"
       style="fill:#111d36;fill-opacity:1;fill-rule:nonzero;stroke:none;stroke-width:0.993758"
       id="path368" /><g
       id="g370"
       transform="matrix(1,0,0,0.98755554,393.0986,260.78236)"><path
         d="m 0,0 c 0,0 22.915,9.193 35.189,2.779 l 1.158,-14.753 -37.416,-4.703 z"
         style="fill:#f7a771;fill-opacity:1;fill-rule:nonzero;stroke:none"
         id="path372" /></g><g
       id="g374"
       transform="matrix(1,0,0,0.98755554,442.0596,231.41128)"><path
         d="m 0,0 c 0,0 -37.202,-4.468 -67.348,11.354 l 25.535,7.735 31.55,5.307 z"
         style="fill:#ffcc05;fill-opacity:1;fill-rule:nonzero;stroke:none"
         id="path376" /></g><g
       id="g378"
       transform="matrix(1,0,0,0.98755554,416.9346,319.11608)"><path
         d="m 0,0 c 0,0 14.449,-0.924 23.659,-29.534 9.785,-30.4 10.496,-54.335 3.704,-58.347 -6.792,-4.014 -15.218,4.846 -23.862,29.327 -8.645,24.481 -12.632,37.664 -12.632,37.664 z"
         style="fill:#ffcc05;fill-opacity:1;fill-rule:nonzero;stroke:none"
         id="path380" /></g><g
       id="g382"
       transform="matrix(1,0,0,0.98755554,413.9678,279.77158)"><path
         d="M 0,0 2.227,18.442"
         style="fill:none;stroke:#eab600;stroke-width:1.458;stroke-linecap:butt;stroke-linejoin:miter;stroke-miterlimit:10;stroke-dasharray:none;stroke-opacity:1"
         id="path384" /></g><g
       id="g386"
       transform="matrix(1,0,0,0.98755554,340.5112,318.44445)"><path
         d="m 0,0 c 0,0 -14.449,-0.925 -23.659,-29.534 -9.785,-30.4 -10.496,-54.334 -3.704,-58.348 6.792,-4.014 16.237,4.848 24.881,29.328 8.644,24.481 11.613,37.664 11.613,37.664 z"
         style="fill:#ffcc05;fill-opacity:1;fill-rule:nonzero;stroke:none"
         id="path388" /></g><g
       id="g390"
       transform="matrix(1,0,0,0.98755554,345.0396,281.51432)"><path
         d="M 0,0 -2.006,16.677"
         style="fill:none;stroke:#eab600;stroke-width:1.458;stroke-linecap:butt;stroke-linejoin:miter;stroke-miterlimit:10;stroke-dasharray:none;stroke-opacity:1"
         id="path392" /></g><g
       id="g394"
       transform="matrix(1,0,0,0.98755554,352.4927,260.67097)"><path
         d="m 0,0 c 0,0 -10.379,10.755 -27.52,16.352 -0.749,0.245 -1.58,0.066 -2.17,-0.455 -1.205,-1.062 -0.925,-3.01 0.53,-3.689 L -18.832,7.382 -32.388,6.478 c -2.233,-0.148 -3.955,-2.138 -3.641,-4.354 0.277,-1.952 1.599,-4.5 5.359,-7.457 z"
         style="fill:#f7a771;fill-opacity:1;fill-rule:nonzero;stroke:none"
         id="path396" /></g><g
       id="g398"
       transform="matrix(1,0,0,0.98755554,321.8228,255.40433)"><path
         d="m 0,0 c 0,0 49.13,9.692 72.437,9.595 l 9.301,-22.994 c 0,0 -72.721,-18.231 -90.413,-10.648 z"
         style="fill:#ffcc05;fill-opacity:1;fill-rule:nonzero;stroke:none"
         id="path400" /></g><g
       id="g402"
       transform="matrix(1,0,0,0.98755554,352.4927,260.67097)"><path
         d="M 0,0 C 0,0 30.881,4.818 41.767,4.262 L 43.081,1.015"
         style="fill:none;stroke:#eab600;stroke-width:1.458;stroke-linecap:butt;stroke-linejoin:miter;stroke-miterlimit:10;stroke-dasharray:none;stroke-opacity:1"
         id="path404" /></g><g
       id="g406"
       transform="matrix(1,0,0,0.98755554,351.1216,231.91276)"><path
         d="M 0,0 52.439,10.389 44.452,30.135"
         style="fill:none;stroke:#eab600;stroke-width:1.458;stroke-linecap:butt;stroke-linejoin:miter;stroke-miterlimit:10;stroke-dasharray:none;stroke-opacity:1"
         id="path408" /></g><g
       id="g410"
       transform="matrix(1,0,0,0.98755554,353.811,364.64299)"><path
         d="m 0,0 -10.971,-14.318 c 0,0 39.459,-30.31 71.912,2.143 L 49.365,1.952 Z"
         style="fill:#111d36;fill-opacity:1;fill-rule:nonzero;stroke:none"
         id="path412" /></g><g
       id="g414"
       transform="matrix(1,0,0,0.98755554,389.042,326.79907)"><path
         d="m 0,0 -2.771,21.987 c 0,0 -2.86,-2.915 -6.656,-3.621 -3.795,-0.705 -7.471,1.514 -7.518,1.541 -0.046,0.027 -3.099,2.57 -3.099,2.57 l -1.674,-22.782 c 0,-0.272 -0.03,-0.539 -0.072,-0.803 L -9.773,-27.229 0.06,-0.707 C 0.024,-0.475 0,-0.239 0,0"
         style="fill:#f7a771;fill-opacity:1;fill-rule:nonzero;stroke:none"
         id="path416" /></g><g
       id="g418"
       transform="matrix(1,0,0,0.98755554,367.252,348.14143)"><path
         d="m 0,0 c 0,0 5.811,-12.272 12.729,-10.665 7.223,1.678 7.19,12.219 7.19,12.219 z"
         style="fill:#111d36;fill-opacity:1;fill-rule:nonzero;stroke:none"
         id="path420" /></g><g
       id="g422"
       transform="matrix(1,0,0,0.98755554,402.3525,379.98486)"><path
         d="m 0,0 c 0,-13.74 -10.692,-24.879 -23.882,-24.879 -13.189,0 -23.882,11.139 -23.882,24.879 0,13.74 10.693,23.088 23.882,23.088 C -10.692,23.088 0,13.74 0,0"
         style="fill:#111d36;fill-opacity:1;fill-rule:nonzero;stroke:none"
         id="path424" /></g><g
       id="g426"
       transform="matrix(1,0,0,0.98755554,398.2051,378.72049)"><path
         d="m 0,0 c 0,-8.566 -1.191,-15.958 -2.381,-21.204 -1.165,-5.136 -4.442,-8.726 -9.074,-11.615 l -0.844,-0.526 c -4.9,-3.057 -11.232,-3.129 -16.208,-0.183 -5.019,2.971 -8.533,6.889 -9.614,12.401 C -40.088,-11.103 -40.303,0 -40.303,0 c 0,0 -1.871,21.625 19.865,21.205 C 1.297,20.784 0,0 0,0"
         style="fill:#f7a771;fill-opacity:1;fill-rule:nonzero;stroke:none"
         id="path428" /></g><g
       id="g430"
       transform="matrix(1,0,0,0.98755554,360.2725,358.66512)"><path
         d="m 0,0 c -3.83,-3.307 -11.893,9.788 -8.185,13.318 3.709,3.531 6.332,-2.214 6.332,-2.214 l 0.752,-4.138 1.12,-5.57 0.289,-1.249 z"
         style="fill:#f7a771;fill-opacity:1;fill-rule:nonzero;stroke:none"
         id="path432" /></g><g
       id="g434"
       transform="matrix(1,0,0,0.98755554,353.7539,367.4596)"><path
         d="M 0,0 C 0,0 1.567,3.392 5.213,-2.563"
         style="fill:none;stroke:#111d36;stroke-width:1.03;stroke-linecap:round;stroke-linejoin:round;stroke-miterlimit:10;stroke-dasharray:none;stroke-opacity:1"
         id="path436" /></g><g
       id="g438"
       transform="matrix(1,0,0,0.98755554,395.8135,358.58937)"><path
         d="M 0,0 C 3.886,-3.241 11.724,9.99 7.955,13.456 4.187,16.922 1.663,11.133 1.663,11.133 L 0.981,6.983 -0.042,1.396 -0.31,0.142 Z"
         style="fill:#f7a771;fill-opacity:1;fill-rule:nonzero;stroke:none"
         id="path440" /></g><g
       id="g442"
       transform="matrix(1,0,0,0.98755554,402.1787,367.49288)"><path
         d="M 0,0 C 0,0 -1.625,3.364 -5.168,-2.652"
         style="fill:none;stroke:#111d36;stroke-width:1.03;stroke-linecap:round;stroke-linejoin:round;stroke-miterlimit:10;stroke-dasharray:none;stroke-opacity:1"
         id="path444" /></g><g
       id="g446"
       transform="matrix(1,0,0,0.98755554,398.8115,383.94565)"><path
         d="m 0,0 c -1.301,6.486 -5.779,10.364 -7.74,11.79 -2.436,2.41 -5.664,4.305 -9.944,4.856 0,0 -13.571,3.061 -19.19,-7.204 -1.938,-1.82 -4.281,-4.859 -5.2,-9.442 -1.68,-8.378 1.444,-12.026 1.444,-12.026 0,0 5.338,7.219 6.681,16.071 4.112,-3.401 12.444,-7.657 28.257,-7.442 2.47,-5.211 5.451,-8.859 5.451,-8.859 0,0 1.921,3.878 0.241,12.256"
         style="fill:#111d36;fill-opacity:1;fill-rule:nonzero;stroke:none"
         id="path448" /></g><g
       id="g450"
       transform="matrix(1,0,0,0.98755554,370.4268,370.42661)"><path
         d="m 0,0 c 0,-1.106 -0.897,-2.003 -2.004,-2.003 -1.106,0 -2.003,0.897 -2.003,2.003 0,1.107 0.897,2.004 2.003,2.004 C -0.897,2.004 0,1.107 0,0"
         style="fill:#111d36;fill-opacity:1;fill-rule:nonzero;stroke:none"
         id="path452" /></g><g
       id="g454"
       transform="matrix(1,0,0,0.98755554,388.9795,370.42661)"><path
         d="m 0,0 c 0,-1.106 -0.896,-2.003 -2.004,-2.003 -1.106,0 -2.003,0.897 -2.003,2.003 0,1.107 0.897,2.004 2.003,2.004 C -0.896,2.004 0,1.107 0,0"
         style="fill:#111d36;fill-opacity:1;fill-rule:nonzero;stroke:none"
         id="path456" /></g><g
       id="g458"
       transform="matrix(1,0,0,0.98755554,376.2168,366.11563)"><path
         d="m 0,0 0.003,-2.704 c 0.001,-0.682 0.606,-1.192 1.253,-1.057 l 1.437,0.302"
         style="fill:none;stroke:#111d36;stroke-width:1.014;stroke-linecap:round;stroke-linejoin:round;stroke-miterlimit:10;stroke-dasharray:none;stroke-opacity:1"
         id="path460" /></g><g
       id="g462"
       transform="matrix(1,0,0,0.98755554,386.082,379.58362)"><path
         d="m 0,0 c 0,0 -5.867,0.481 -5.927,-1.907 0,0 0.005,-1.617 5.124,-1.938 5.119,-0.321 6.45,0.054 6.918,1.573 C 6.583,-0.753 2.752,-0.015 0,0"
         style="fill:#111d36;fill-opacity:1;fill-rule:nonzero;stroke:none"
         id="path464" /></g><g
       id="g466"
       transform="matrix(1,0,0,0.98755554,368.5371,379.58362)"><path
         d="m 0,0 c 0,0 5.868,0.481 5.927,-1.907 0,0 -0.005,-1.617 -5.124,-1.938 -5.119,-0.321 -6.451,0.054 -6.919,1.573 C -6.583,-0.753 -2.752,-0.015 0,0"
         style="fill:#111d36;fill-opacity:1;fill-rule:nonzero;stroke:none"
         id="path468" /></g><g
       id="g470"
       transform="matrix(1,0,0,0.98755554,383.0078,360.34268)"><path
         d="M 0,0 C 0,0 -2.107,-3.385 -7.537,-2.428"
         style="fill:none;stroke:#111d36;stroke-width:1.014;stroke-linecap:round;stroke-linejoin:round;stroke-miterlimit:10;stroke-dasharray:none;stroke-opacity:1"
         id="path472" /></g></g></svg>
